<?xml version="1.0" encoding="utf-8"?>
<!-- Generator: Adobe Illustrator 19.1.0, SVG Export Plug-In . SVG Version: 6.00 Build 0)  -->
<svg version="1.1" id="Calque_1" xmlns="http://www.w3.org/2000/svg" xmlns:xlink="http://www.w3.org/1999/xlink" x="0px" y="0px"
	 viewBox="0 0 144 72" style="enable-background:new 0 0 144 72;" xml:space="preserve">
<style type="text/css">
	.st0{fill:none;}
	.st1{enable-background:new    ;}
	.st2{fill:#0395BA;}
</style>
<rect x="1.3" y="10" class="st0" width="141.3" height="48.9"/>
<g class="st1">
	<path class="st2" d="M32.3,55.5H5.8v-3.3l13-13.7c2.1-2.2,3.6-3.9,4.6-5c0.9-1.1,1.8-2.5,2.6-4.1c0.8-1.6,1.2-3.2,1.2-4.9
		c0-2.8-0.8-4.8-2.4-6c-1.6-1.2-4-1.8-7.3-1.8c-2.8,0-5.9,0.4-9.3,1.1l-1.7,0.4L6.1,15c3.9-1.1,8-1.7,12.2-1.7
		c4.2,0,7.3,0.9,9.5,2.6c2.2,1.7,3.2,4.5,3.2,8.3c0,2.9-0.7,5.4-2,7.6c-1.3,2.1-3.5,4.7-6.6,7.8L10.5,52.1h21.8V55.5z"/>
	<path class="st2" d="M41.2,22c1.2-3.3,2.9-5.6,4.9-6.8c2.1-1.2,4.6-1.9,7.5-1.9c2.9,0,5.3,0.3,7,1s3.3,1.9,4.6,3.5
		c2.6,3.2,3.9,8.8,3.9,16.9c0,8.1-1.2,13.7-3.7,16.8c-2.5,3.1-6.2,4.6-11.2,4.6c-5,0-8.7-1.5-11.2-4.6c-2.5-3-3.7-8.4-3.7-16.1
		C39.3,29.8,39.9,25.3,41.2,22z M60.4,18.3c-1.5-1-3.6-1.6-6.1-1.6s-4.6,0.5-6.1,1.5c-3.1,2.1-4.7,7.9-4.7,17.3
		c0,6.5,0.9,11,2.6,13.4c1.8,2.4,4.5,3.7,8.3,3.7c2.4,0,4.4-0.5,5.9-1.4c3.3-2,4.9-7.3,4.9-15.8C65.1,26.2,63.5,20.5,60.4,18.3z"/>
	<path class="st2" d="M95.9,13.9v41.6h-3.8V18.2L81,25.6l-1.8-3l13.1-8.7H95.9z"/>
	<path class="st2" d="M137.3,17.4c-3.7-0.4-7.3-0.6-11-0.6s-6.5,1.3-8.6,4c-2.1,2.7-3.1,6.5-3.1,11.5l1.6-0.6c3.6-1.3,6.7-2,9.4-2
		c9.2,0,13.9,4.2,13.9,12.7c0,4.4-1.2,7.7-3.7,10.1c-2.5,2.4-6,3.6-10.6,3.6c-9.7,0-14.6-7.2-14.6-21.7c0-7.2,1.4-12.6,4.2-16
		c2.8-3.4,6.7-5.2,11.7-5.2c2.9,0,6,0.3,9.5,0.8l1.6,0.2L137.3,17.4z M125.4,33.1c-1.5,0-3.2,0.2-5,0.7c-1.8,0.4-3.2,0.9-4.3,1.4
		l-1.6,0.7c0.1,11.2,3.7,16.8,10.6,16.8c3.4,0,5.9-0.9,7.7-2.6c1.8-1.7,2.6-4.2,2.6-7.5C135.5,36.2,132.1,33.1,125.4,33.1z"/>
</g>
</svg>
