<?xml version="1.0" encoding="UTF-8"?>
<svg xmlns="http://www.w3.org/2000/svg" xmlns:xlink="http://www.w3.org/1999/xlink" width="524.66pt" height="389.536pt" viewBox="0 0 524.66 389.536" version="1.1">
<defs>
<clipPath id="clip1">
  <path d="M 0 0 L 524.660156 0 L 524.660156 389.535156 L 0 389.535156 Z M 0 0 "/>
</clipPath>
<clipPath id="clip2">
  <path d="M 220.179688 0 L 183.511719 66 L 176.84375 25.332031 L 170.84375 68.664062 L 170.84375 126 L 159.761719 130.75 L 159.628906 134.898438 L 151.511719 141.332031 L 139.511719 120.664062 L 124.511719 143.332031 L 124.511719 201 C 116.003906 204.03125 105.339844 208.351562 93.511719 214.5 C 79.515625 221.773438 69.847656 228.503906 62.011719 234 C 44.46875 246.304688 28.742188 257.507812 13.511719 276.5 C 7.320312 284.222656 2.882812 291.148438 0 296 C 38.105469 316.757812 93.554688 342.828125 164.015625 362.15625 C 183.941406 367.621094 210.648438 374.078125 241.980469 379.199219 C 285.613281 386.332031 329.921875 389.523438 370.144531 389.535156 L 370.796875 389.535156 C 455.222656 389.496094 521.390625 375.453125 524.648438 354.53125 C 524.65625 354.484375 524.660156 354.429688 524.660156 354.367188 L 524.660156 354.324219 C 524.628906 351.914062 519.644531 341.011719 509.980469 319.867188 C 502.351562 303.171875 498.535156 294.824219 493.980469 286.535156 C 487.789062 275.257812 480.527344 262.199219 467.980469 247.199219 C 462.898438 241.125 454.425781 231.714844 442.648438 221.867188 C 437.550781 217.605469 431.839844 212.871094 423.3125 207.867188 C 414.839844 202.890625 407.84375 200.140625 401.980469 197.867188 C 395.511719 195.355469 386.800781 192.40625 376.179688 190 L 376.179688 114 L 372.496094 115.25 L 358.511719 85 L 345.179688 115 L 341.84375 113.664062 L 341.84375 124.667969 L 338.84375 124.667969 L 338.84375 64.667969 L 332.84375 25.332031 L 326.179688 64 L 288.179688 0 Z M 220.179688 0 "/>
</clipPath>sss
</defs>
<g id="surface1">
<g clip-path="url(#clip1)" clip-rule="nonzero">
<g clip-path="url(#clip2)" clip-rule="nonzero">
<path style=" stroke:none;fill-rule:nonzero;fill:#00daf2;" d="M 0 0 L 0 389.535156 L 524.660156 389.535156 L 524.660156 0 Z M 0 0 "/>
</g>
</g>
</g>
</svg>
