<?xml version="1.0" encoding="utf-8"?>
<!-- Generator: Adobe Illustrator 19.2.1, SVG Export Plug-In . SVG Version: 6.00 Build 0)  -->
<svg version="1.1" id="media_-_date" xmlns="http://www.w3.org/2000/svg" xmlns:xlink="http://www.w3.org/1999/xlink" x="0px"
	 y="0px" viewBox="0 0 49.9 30.8" style="enable-background:new 0 0 49.9 30.8;" xml:space="preserve">
<style type="text/css">
	.Arched_x0020_Green{fill:url(#SVGID_1_);stroke:#FFFFFF;stroke-width:0.25;stroke-miterlimit:1;}
	.st0{fill:#FFFFFF;}
</style>
<linearGradient id="SVGID_1_" gradientUnits="userSpaceOnUse" x1="-53.5879" y1="199.4674" x2="-52.8808" y2="198.7603">
	<stop  offset="0" style="stop-color:#20AC4B"/>
	<stop  offset="0.9831" style="stop-color:#19361A"/>
</linearGradient>
<polygon class="st0" points="34,0.9 29.9,3.3 34,5.7 38.1,3.3 "/>
<polygon class="st0" points="38.3,3.7 34.2,6.1 34.2,10.9 36.8,9.4 37.5,9.8 38.3,10.3 38.3,9.3 "/>
<g>
	<path class="st0" d="M33.8,6.1l-9.7-5.6c-0.1-0.1-0.3-0.1-0.5,0l-6.2,3.6c-0.1,0-0.1,0.1-0.2,0.2c0,0.1-0.1,0.2-0.1,0.3l0,9.8
		c0,0.2,0.1,0.3,0.2,0.4c0.1,0.1,0.3,0.1,0.5,0l2.1-1.2l3.6,2.1c0.1,0,0.1,0.1,0.2,0.1c0,0,0,0,0,0c0,0,0,0,0,0c0.1,0,0.2,0,0.2-0.1
		l6.2-3.6c0.1-0.1,0.2-0.2,0.2-0.4l0-2.6l3.2,1.9L33.8,6.1z M23.4,14.4l-3.2-1.8c-0.1,0-0.1-0.1-0.2-0.1c-0.1,0-0.2,0-0.2,0.1
		l-1.6,1v-1.9c0,0,0,0,0,0l0-6.3l5.3,3L23.4,14.4z M23.9,7.5l-5.3-3.1l5.3-3.1l5.3,3.1L23.9,7.5z M24.3,14.4l0-6.1l5.3-3l0,0l0,3.2
		l0,2.9L24.3,14.4z"/>
</g>
<path class="st0" d="M8,23.6c-0.7,0.7-1.4,1-2.4,1H2.3v5H0.7V17.9h5c0.9,0,1.7,0.3,2.4,1c0.6,0.6,1,1.4,1,2.4
	C9,22.1,8.7,22.9,8,23.6z M6.9,20.1c-0.3-0.3-0.7-0.5-1.2-0.5H2.3v3.3h3.3c0.5,0,0.9-0.2,1.2-0.5c0.3-0.3,0.5-0.7,0.5-1.2
	C7.3,20.8,7.2,20.4,6.9,20.1z"/>
<path class="st0" d="M9.3,29.6v-1.7h2.4v-8.3H9.3v-1.7h6.5v1.7h-2.4v8.3h2.4v1.7H9.3z"/>
<path class="st0" d="M23.8,29.6v-2.2l-2.5-2.5l-2.5,2.5v2.2h-1.7v-2.8l3-3l-3-3v-2.8h1.7v2.2l2.5,2.5l2.5-2.5v-2.2h1.7v2.8l-3,3l3,3
	v2.8H23.8z"/>
<path class="st0" d="M26.9,29.6V17.9h8.3v1.7h-6.7v3.2h5v1.7h-5v3.5h6.7v1.7H26.9z"/>
<g id="Layer_3">
</g>
<path class="st0" d="M43,20.9l-0.4,0.2v3.2l0.4-0.2c0.1-0.1,0.2-0.2,0.2-0.3v-2.7C43.3,20.9,43.2,20.8,43,20.9z"/>
<path class="st0" d="M49.2,15.5l-13.9,8l0,6.9l13.9-8L49.2,15.5z M40.9,20.6l0.5-0.3L41,21.2l-0.4,0.2L40.9,20.6z M39.7,26.6
	l-0.5,0.3l0.1-2.8l-0.4,2.2l-0.4,0.2L38,24.8l0.1,2.8l-0.5,0.3v-4.3l0.6-0.3l0.5,2.2l0.5-2.8l0.6-0.3V26.6z M41.6,21.7l-0.8,0.5v1.3
	l0.7-0.4v0.5L40.8,24v1.4l0.8-0.5v0.5l-1.3,0.8V22l1.3-0.8V21.7z M43.8,23.6c0,0.4-0.2,0.7-0.6,1l-1.1,0.6v-4.3l0.9-0.5
	c0.5-0.3,0.8-0.2,0.8,0.4V23.6z M44.9,23.6l-0.5,0.3v-4.3l0.5-0.3V23.6z M47.2,22.3l-0.5,0.3V21L46,21.4v1.6l-0.5,0.3v-3.5
	c0-0.5,0.2-0.9,0.6-1.1l0.4-0.2c0.4-0.2,0.6-0.1,0.6,0.4V22.3z"/>
<path class="st0" d="M46.4,19l-0.1,0.1c-0.2,0.1-0.2,0.2-0.2,0.4v1.4l0.6-0.4v-1.4C46.6,18.9,46.6,18.9,46.4,19z"/>
<path class="st0" d="M43.3,23.8c0,0.1-0.1,0.2-0.2,0.3l-0.4,0.2v-3.2l0.4-0.2c0.2-0.1,0.2,0,0.2,0.2V23.8z"/>
<g>
	<polygon class="st0" points="38.4,27.9 38.4,26.5 38,24.8 38,27.5 37.5,27.8 37.5,23.6 38.1,23.2 38.4,24.5 38.4,17.9 36.7,17.9 
		36.7,29.6 45,29.6 45,27.9 	"/>
</g>
</svg>
